<?xml version="1.0" encoding="iso-8859-1"?>
<!-- Generator: Adobe Illustrator 19.0.0, SVG Export Plug-In . SVG Version: 6.00 Build 0)  -->
<svg version="1.1" id="Capa_1" xmlns="http://www.w3.org/2000/svg" xmlns:xlink="http://www.w3.org/1999/xlink" x="0px" y="0px"
	 viewBox="0 0 512 512" style="enable-background:new 0 0 512 512;" xml:space="preserve">
<g>
	<g>
		<path d="M342.308,212.897c-2.025-1.427-4.619-1.783-6.955-0.948l-30.297,10.82v-10.228c0-4.21-3.413-7.622-7.623-7.622H175.765
			c-4.21,0-7.623,3.412-7.623,7.623v86.917c0,4.211,3.413,7.623,7.623,7.623h121.668c4.211,0,7.623-3.412,7.623-7.623v-10.228
			l30.297,10.82c2.334,0.833,4.929,0.481,6.955-0.948c2.027-1.428,3.232-3.751,3.232-6.231v-73.744
			C345.54,216.65,344.334,214.325,342.308,212.897z M330.294,282.055L330.294,282.055l-30.298-10.82
			c-2.336-0.834-4.93-0.48-6.955,0.948c-2.027,1.428-3.232,3.751-3.232,6.231v13.422H183.387v-71.672H289.81v13.422
			c0,2.479,1.205,4.803,3.232,6.231c2.025,1.427,4.618,1.783,6.955,0.948l30.297-10.821V282.055z"/>
	</g>
</g>
<g>
	<g>
		<path d="M405.284,99.932H296.365c-4.211,0-7.623,3.412-7.623,7.623s3.412,7.623,7.623,7.623h101.297v281.646H116.016V115.177
			h85.488c4.21,0,7.623-3.412,7.623-7.623s-3.413-7.623-7.623-7.623h-93.111c-4.21,0-7.623,3.412-7.623,7.623v296.892
			c0,4.211,3.413,7.623,7.623,7.623h296.891c4.211,0,7.623-3.412,7.623-7.623V107.555
			C412.907,103.344,409.495,99.932,405.284,99.932z"/>
	</g>
</g>
<g>
	<g>
		<path d="M504.377,71.519h-26.35c-4.211,0-7.623,3.412-7.623,7.623v13.703h-29.083V79.141c0-4.211-3.412-7.623-7.623-7.623H221.833
			c-4.21,0-7.623,3.412-7.623,7.623s3.413,7.623,7.623,7.623h204.243v13.703c0,4.211,3.412,7.623,7.623,7.623h44.328
			c4.211,0,7.623-3.412,7.623-7.623V86.764h11.105v338.473H485.65v-1.375c0-4.211-3.412-7.623-7.623-7.623h-44.328
			c-4.211,0-7.623,3.412-7.623,7.623v1.375H87.603v-1.375c0-4.211-3.413-7.623-7.623-7.623H33.972c-4.21,0-7.623,3.412-7.623,7.623
			v1.375H15.245V86.764h11.104v13.703c0,4.211,3.413,7.623,7.623,7.623H79.98c4.21,0,7.623-3.412,7.623-7.623V86.764h44.789
			c4.21,0,7.623-3.412,7.623-7.623s-3.413-7.623-7.623-7.623H79.98c-4.21,0-7.623,3.412-7.623,7.623v13.703H41.594V79.141
			c0-4.211-3.413-7.623-7.623-7.623H7.623C3.413,71.519,0,74.931,0,79.141v353.718c0,4.211,3.413,7.623,7.623,7.623h26.349
			c4.21,0,7.623-3.412,7.623-7.623v-1.375h30.763v1.375c0,4.211,3.413,7.623,7.623,7.623h353.717c4.211,0,7.623-3.412,7.623-7.623
			v-1.375h29.083v1.375c0,4.211,3.412,7.623,7.623,7.623h26.35c4.211,0,7.623-3.412,7.623-7.623V79.141
			C512,74.931,508.587,71.519,504.377,71.519z"/>
	</g>
</g>
<g>
	<g>
		<path d="M79.98,270.504H33.972c-4.21,0-7.623,3.412-7.623,7.623v40.944c0,4.211,3.413,7.623,7.623,7.623H79.98
			c4.21,0,7.623-3.412,7.623-7.623v-40.944C87.603,273.916,84.19,270.504,79.98,270.504z M41.594,311.448v-25.699h30.763v25.699
			H41.594z"/>
	</g>
</g>
<g>
	<g>
		<path d="M478.027,197.637h-44.328c-4.211,0-7.623,3.412-7.623,7.623v40.944c0,4.211,3.412,7.623,7.623,7.623h44.328
			c4.211,0,7.623-3.412,7.623-7.623V205.26C485.65,201.049,482.238,197.637,478.027,197.637z M470.404,238.581h-29.083v-25.699
			h29.083V238.581z"/>
	</g>
</g>
<g>
	<g>
		<path d="M478.027,270.504h-44.328c-4.211,0-7.623,3.412-7.623,7.623v40.944c0,4.211,3.412,7.623,7.623,7.623h44.328
			c4.211,0,7.623-3.412,7.623-7.623v-40.944C485.65,273.916,482.238,270.504,478.027,270.504z M470.404,311.448h-29.083v-25.699
			h29.083V311.448z"/>
	</g>
</g>
<g>
	<g>
		<path d="M478.027,124.768h-44.328c-4.211,0-7.623,3.412-7.623,7.623v40.944c0,4.211,3.412,7.623,7.623,7.623h44.328
			c4.211,0,7.623-3.412,7.623-7.623v-40.944C485.65,128.18,482.238,124.768,478.027,124.768z M470.404,165.712h-29.083v-25.699
			h29.083V165.712z"/>
	</g>
</g>
<g>
	<g>
		<path d="M478.027,343.372h-44.328c-4.211,0-7.623,3.412-7.623,7.623v40.943c0,4.211,3.412,7.623,7.623,7.623h44.328
			c4.211,0,7.623-3.412,7.623-7.623v-40.943C485.65,346.784,482.238,343.372,478.027,343.372z M470.404,384.315h-29.083v-25.698
			h29.083V384.315z"/>
	</g>
</g>
<g>
	<g>
		<path d="M79.98,197.637H33.972c-4.21,0-7.623,3.412-7.623,7.623v40.944c0,4.211,3.413,7.623,7.623,7.623H79.98
			c4.21,0,7.623-3.412,7.623-7.623V205.26C87.603,201.049,84.19,197.637,79.98,197.637z M41.594,238.581v-25.699h30.763v25.699
			H41.594z"/>
	</g>
</g>
<g>
	<g>
		<path d="M79.98,343.372H33.972c-4.21,0-7.623,3.412-7.623,7.623v40.943c0,4.211,3.413,7.623,7.623,7.623H79.98
			c4.21,0,7.623-3.412,7.623-7.623v-40.943C87.603,346.785,84.19,343.372,79.98,343.372z M41.594,384.315v-25.698h30.763v25.698
			H41.594z"/>
	</g>
</g>
<g>
	<g>
		<path d="M79.98,124.768H33.972c-4.21,0-7.623,3.412-7.623,7.623v40.944c0,4.211,3.413,7.623,7.623,7.623H79.98
			c4.21,0,7.623-3.412,7.623-7.623v-40.944C87.603,128.18,84.19,124.768,79.98,124.768z M41.594,165.712v-25.699h30.763v25.699
			H41.594z"/>
	</g>
</g>
<g>
</g>
<g>
</g>
<g>
</g>
<g>
</g>
<g>
</g>
<g>
</g>
<g>
</g>
<g>
</g>
<g>
</g>
<g>
</g>
<g>
</g>
<g>
</g>
<g>
</g>
<g>
</g>
<g>
</g>
</svg>
