<?xml version="1.0" encoding="UTF-8" standalone="no"?><!DOCTYPE svg PUBLIC "-//W3C//DTD SVG 1.1//EN" "http://www.w3.org/Graphics/SVG/1.1/DTD/svg11.dtd"><svg width="100%" height="100%" viewBox="0 0 600 450" version="1.1" xmlns="http://www.w3.org/2000/svg" xmlns:xlink="http://www.w3.org/1999/xlink" xml:space="preserve" xmlns:serif="http://www.serif.com/" style="fill-rule:evenodd;clip-rule:evenodd;stroke-linejoin:round;stroke-miterlimit:2;"><path d="M211.184,137.633l91.218,0c0,3.743 1.487,7.333 4.134,9.979c2.646,2.647 6.236,4.134 9.979,4.134l0,51.453c-3.743,0 -7.333,1.487 -9.979,4.133c-2.647,2.647 -4.134,6.237 -4.134,9.979l-91.215,0c0.003,-0.049 0.004,-0.099 0.004,-0.149c0,-1.464 -1.188,-2.653 -2.652,-2.653c-1.465,0 -2.653,1.189 -2.653,2.653c0,0.05 0.001,0.1 0.004,0.149l-59.688,0c0,-3.742 -1.487,-7.332 -4.134,-9.979c-2.646,-2.646 -6.236,-4.133 -9.979,-4.133c0,-14.502 0,-36.951 0,-51.453c3.743,0 7.333,-1.487 9.979,-4.134c2.647,-2.646 4.134,-6.236 4.134,-9.979l59.692,0c-0.006,0.068 -0.008,0.136 -0.008,0.205c0,1.465 1.188,2.653 2.653,2.653c1.464,0 2.652,-1.188 2.652,-2.653c0,-0.069 -0.002,-0.137 -0.007,-0.205Zm-2.645,67.676c1.464,0 2.652,1.189 2.652,2.653c0,1.464 -1.188,2.653 -2.652,2.653c-1.465,0 -2.653,-1.189 -2.653,-2.653c0,-1.464 1.188,-2.653 2.653,-2.653Zm0,-9.649c1.464,0 2.652,1.189 2.652,2.653c0,1.464 -1.188,2.653 -2.652,2.653c-1.465,0 -2.653,-1.189 -2.653,-2.653c0,-1.464 1.188,-2.653 2.653,-2.653Zm0,-8.639c1.464,0 2.652,1.189 2.652,2.653c0,1.464 -1.188,2.653 -2.652,2.653c-1.465,0 -2.653,-1.189 -2.653,-2.653c0,-1.464 1.188,-2.653 2.653,-2.653Zm0,-8.639c1.464,0 2.652,1.188 2.652,2.653c0,1.464 -1.188,2.652 -2.652,2.652c-1.465,0 -2.653,-1.188 -2.653,-2.652c0,-1.465 1.188,-2.653 2.653,-2.653Zm0,-8.64c1.464,0 2.652,1.189 2.652,2.653c0,1.464 -1.188,2.653 -2.652,2.653c-1.465,0 -2.653,-1.189 -2.653,-2.653c0,-1.464 1.188,-2.653 2.653,-2.653Zm0,-8.639c1.464,0 2.652,1.189 2.652,2.653c0,1.464 -1.188,2.653 -2.652,2.653c-1.465,0 -2.653,-1.189 -2.653,-2.653c0,-1.464 1.188,-2.653 2.653,-2.653Zm0,-8.639c1.464,0 2.652,1.189 2.652,2.653c0,1.464 -1.188,2.653 -2.652,2.653c-1.465,0 -2.653,-1.189 -2.653,-2.653c0,-1.464 1.188,-2.653 2.653,-2.653Zm0,-8.639c1.464,0 2.652,1.189 2.652,2.653c0,1.464 -1.188,2.653 -2.652,2.653c-1.465,0 -2.653,-1.189 -2.653,-2.653c0,-1.464 1.188,-2.653 2.653,-2.653Z" style="fill:#fff;"/></svg>