<?xml version="1.0" encoding="UTF-8" standalone="no"?><!DOCTYPE svg PUBLIC "-//W3C//DTD SVG 1.1//EN" "http://www.w3.org/Graphics/SVG/1.1/DTD/svg11.dtd"><svg width="100%" height="100%" viewBox="0 0 185 80" version="1.1" xmlns="http://www.w3.org/2000/svg" xmlns:xlink="http://www.w3.org/1999/xlink" xml:space="preserve" xmlns:serif="http://www.serif.com/" style="fill-rule:evenodd;clip-rule:evenodd;stroke-linejoin:round;stroke-miterlimit:2;"><path d="M80.296,0l90.017,0c0,3.743 1.487,7.332 4.133,9.979c2.647,2.647 6.236,4.133 9.979,4.133l0,51.454c-3.743,0 -7.332,1.486 -9.979,4.133c-2.646,2.647 -4.133,6.236 -4.133,9.979c-34.326,0 -121.875,0 -156.201,0c0,-3.743 -1.486,-7.332 -4.133,-9.979c-2.647,-2.647 -6.236,-4.133 -9.979,-4.133c0,-14.502 0,-36.952 0,-51.454c3.743,0 7.332,-1.486 9.979,-4.133c2.647,-2.647 4.133,-6.236 4.133,-9.979l60.491,0c-0.009,0.095 -0.014,0.191 -0.014,0.288c0,1.579 1.282,2.861 2.86,2.861c1.579,0 2.861,-1.282 2.861,-2.861c0,-0.097 -0.005,-0.193 -0.014,-0.288Zm-2.847,72.372c1.579,0 2.861,1.282 2.861,2.86c0,1.579 -1.282,2.861 -2.861,2.861c-1.578,0 -2.86,-1.282 -2.86,-2.861c0,-1.578 1.282,-2.86 2.86,-2.86Zm0,-8.327c1.579,0 2.861,1.281 2.861,2.86c0,1.579 -1.282,2.861 -2.861,2.861c-1.578,0 -2.86,-1.282 -2.86,-2.861c0,-1.579 1.282,-2.86 2.86,-2.86Zm0,-8.328c1.579,0 2.861,1.282 2.861,2.861c0,1.579 -1.282,2.861 -2.861,2.861c-1.578,0 -2.86,-1.282 -2.86,-2.861c0,-1.579 1.282,-2.861 2.86,-2.861Zm0,-8.327c1.579,0 2.861,1.282 2.861,2.861c0,1.579 -1.282,2.861 -2.861,2.861c-1.578,0 -2.86,-1.282 -2.86,-2.861c0,-1.579 1.282,-2.861 2.86,-2.861Zm0,-8.327c1.579,0 2.861,1.282 2.861,2.861c0,1.579 -1.282,2.861 -2.861,2.861c-1.578,0 -2.86,-1.282 -2.86,-2.861c0,-1.579 1.282,-2.861 2.86,-2.861Zm0,-8.327c1.579,0 2.861,1.282 2.861,2.861c0,1.578 -1.282,2.86 -2.861,2.86c-1.578,0 -2.86,-1.282 -2.86,-2.86c0,-1.579 1.282,-2.861 2.86,-2.861Zm0,-8.327c1.579,0 2.861,1.282 2.861,2.86c0,1.579 -1.282,2.861 -2.861,2.861c-1.578,0 -2.86,-1.282 -2.86,-2.861c0,-1.578 1.282,-2.86 2.86,-2.86Zm0,-8.328c1.579,0 2.861,1.282 2.861,2.861c0,1.579 -1.282,2.861 -2.861,2.861c-1.578,0 -2.86,-1.282 -2.86,-2.861c0,-1.579 1.282,-2.861 2.86,-2.861Zm0,-8.327c1.579,0 2.861,1.282 2.861,2.861c0,1.579 -1.282,2.861 -2.861,2.861c-1.578,0 -2.86,-1.282 -2.86,-2.861c0,-1.579 1.282,-2.861 2.86,-2.861Z" style="fill:#fff;"/></svg>